<?xml version="1.0" standalone="no"?>
<!DOCTYPE svg PUBLIC "-//W3C//DTD SVG 20010904//EN" "http://www.w3.org/TR/2001/REC-SVG-20010904/DTD/svg10.dtd">
<!-- Created using Karbon, part of Calligra: http://www.calligra.org/karbon -->
<svg xmlns="http://www.w3.org/2000/svg" xmlns:xlink="http://www.w3.org/1999/xlink" width="409.6pt" height="409.6pt">
<defs/>
<g id="Livello">
  <path id="path5700" transform="matrix(1.64626 0 0 1.06523 124.723 124.723)" fill="#ffffff" d="M159.453 123.244C159.464 191.305 123.766 246.488 79.7263 246.488C35.6869 246.488 -0.0110262 191.305 2.55478e-06 123.244C-0.0110262 55.1833 35.6869 0 79.7263 0C123.766 0 159.464 55.1833 159.453 123.244Z"/>
  <g id="g3518" transform="translate(-6.24389, -7.95924)" fill="none">
   <path id="path58241" transform="matrix(1.00392 0 0 1.00392 12.4878 12.4878)" fill="#034ea1" stroke="#ffffff" stroke-width="12.43902397000" stroke-linecap="round" stroke-linejoin="round" d="M248.78 0C231.744 0 215.101 1.78619 199.024 5.05335L199.024 43.5366C189.666 45.7958 180.576 48.6462 171.778 52.0688C160.257 56.5503 149.238 62.013 138.773 68.4146L111.562 41.2043C97.6144 50.4472 84.8667 61.2918 73.0793 73.0793C61.2918 84.8667 50.4472 97.6144 41.2043 111.563L68.4146 138.773C57.1239 157.23 48.754 177.413 43.5366 199.024L5.05336 199.024C1.78625 215.101 0 231.744 0 248.78C0 265.817 1.78625 282.46 5.05336 298.537L43.5366 298.537C48.754 320.148 57.1239 340.33 68.4146 358.788L41.2043 385.998C48.3845 396.834 56.5312 406.945 65.3357 416.444C67.865 419.173 70.4487 421.851 73.0793 424.482C84.8667 436.269 97.6144 447.114 111.562 456.357L138.773 429.146C157.231 440.437 177.413 448.807 199.024 454.024L199.024 492.508C215.101 495.775 231.744 497.561 248.78 497.561C265.817 497.561 282.46 495.775 298.537 492.508L298.537 454.024C320.148 448.807 340.33 440.437 358.788 429.146L385.998 456.357C399.947 447.114 412.694 436.269 424.482 424.482C436.269 412.694 447.114 399.947 456.357 385.998L429.146 358.788C440.437 340.33 448.807 320.148 454.024 298.537L492.508 298.537C495.775 282.46 497.561 265.817 497.561 248.78C497.561 231.744 495.775 215.101 492.508 199.024L454.024 199.024C448.807 177.413 440.437 157.23 429.146 138.773L456.357 111.562C447.114 97.6144 436.269 84.8667 424.482 73.0793C412.694 61.2918 399.947 50.4472 385.998 41.2043L358.788 68.4146C340.33 57.1239 320.148 48.754 298.537 43.5366L298.537 5.05335C282.46 1.78619 265.817 -5.68434e-14 248.78 0ZM248.78 124.39C290.601 124.39 327.623 145.063 350.177 176.74C364.654 197.072 373.171 221.938 373.171 248.78C373.171 317.444 317.444 373.171 248.78 373.171C180.117 373.171 124.39 317.444 124.39 248.78C124.39 203.905 148.193 164.556 183.853 142.677C202.757 131.079 224.992 124.39 248.78 124.39Z"/>
  </g>
  <g id="text5666" transform="translate(192.305, 158.264)" fill="none">
   <path id="path7599" transform="matrix(1.18706 0 0 0.842419 0.729479 0.526512)" fill="#000000" d="M101.417 0L107.469 3.77628L109.002 10.6173L104.914 16.3782L83.1945 27.1799L60.1976 41.5821L55.8538 48.7832L55.3427 55.2642L57.6424 62.4653L67.0967 75.7874L77.573 89.8295L84.4721 97.0306C85.8348 98.8993 87.4884 101.151 89.4327 103.785L99.0367 118.634L106.447 135.557C106.668 140.803 106.369 143.74 106.369 145.589L103.398 154.106L96.226 166.881C88.6903 175.416 96.154 168.633 82.3001 182.184L67.6077 195.326L51.5009 206.598C43.1009 212.024 40.1231 213.484 36.6897 215.849L21.8695 222.69C14.3822 226.579 9.32861 226.734 4.74967 228.091L0.916865 225.21L0 220.265L1.17239 215.129L4.95201 210.955C6.00843 209.019 8.58136 207.169 12.6708 205.407C13.3311 204.879 14.1925 204.653 19.6901 202.059C22.2207 199.841 22.1868 200.539 25.7024 197.846C28.9046 195.422 31.3746 193.682 33.1124 192.625L43.7206 184.747L52.0319 176.854L58.92 170.842L67.6077 161.481L70.9295 154.279L70.1629 148.519L67.3522 142.758L53.4817 123.404L38.7339 105.312C35.5646 100.954 31.5331 95.9753 29.0241 93.07L24.6803 86.9491C24.152 84.8363 18.8033 78.4278 18.0367 76.8675L15.4815 68.9463C14.5571 64.0605 15.6393 62.2498 14.715 60.665L17.4311 49.9162L19.4119 44.9642L23.9677 39.0218C28.7216 35.5886 32.089 32.7494 34.0698 30.5044C40.4774 26.3362 45.3538 23.1877 48.6992 21.0589C51.395 19.0783 60.4404 14.1951 60.7046 13.4026L74.6763 7.32897C84.1865 3.51975 90.6571 1.07676 94.0881 0Z"/>
  </g>
 </g>
</svg>
